<?xml version="1.0" encoding="UTF-8"?>
<svg id="_Слой_2" data-name="Слой 2" xmlns="http://www.w3.org/2000/svg" viewBox="0 0 408.59 303.75">
  <defs>
    <style>
      .cls-1 {
        fill: #44abe1;
      }

      .cls-2 {
        fill: #2974ba;
      }
    </style>
  </defs>
  <g id="_Слой_1-2" data-name="Слой 1">
    <g>
      <path class="cls-2" d="M206.59,0c-.13.75.34.39.79.53.49.14.92.4,1.36.56,66.14,23.75,132.1,47.72,198.23,71.39.28.1,1.43.55,1.5.66l.11.97H.64c-1.56-.73.1-1.3,1.01-1.63C68,48.75,134.23,24.66,200.6.84l1.43-.84h4.56ZM33.51,68.58h341.62c.05,0,.44-.41.36-.48-57.11-20.45-114.1-41.17-171.17-61.64-47.54,17.17-95.28,34.26-142.87,51.43l-28.3,10.2c-.07.06.27.45.36.48Z"/>
      <path class="cls-1" d="M310.43,112.9c-.24.24-2.15,1.55-2.6,1.84-3.25,2.09-7.75,3.09-11.34,4.73s-8.4,4.44-10.73,7.5c-.24.32-.44.98-.52,1.05s-.31,0-.39.07c-.72.65-1.3,3.39-1.52,4.37-.07.31-.39.57-.45.99-.18,1.27.25,1.82.48,2.88.07.34-.05.76.04,1.16s.58.76.65,1.03c.08.29-.02.61.06.89.2.69,2.11,3.22,2.72,3.75,2.39,2.08,4.99,3.1,7.88,4.12,4.42,1.55,8.85,2.53,13.48,3.55,11.35,2.49,22.6,4.69,32.98,10.19,3.54,1.87,7.07,4.34,10.33,6.95,6.73,5.41,13.2,14.17,16.34,22.98.7,1.96,1.47,3.9,1.88,6.04.43,2.25.46,4.18.72,6.47.06.55.42,1.38.48,1.92.23,2.26-.27,4.7-.48,6.95-.45,4.87-1.67,8.96-2.67,13.63-.09.43-.58.77-.65,1.03-.19.68-.19.94-.46,1.69-7.29,20.37-23.53,37.03-41.56,48.87-10.9,7.15-22.7,12.78-34.94,17.12-5.21,1.85-10.82,3.19-16.27,4.36-16.15,3.47-31.3,4.56-47.98,3.35-8.18-.59-15.84-2.07-23.79-3.8-.63-.14-1.34.05-2-.28l.95-.6c14.58-5.08,29.53-14.75,39.83-26.61,6.85-7.88,12.94-17.39,16.99-27.14,1.29-3.1,2.5-6.49,3.2-9.76.08-.39.56-.88.65-1.27.27-1.25.42-3.03.79-4.25,1.4-4.61,1.51-9.55,2.38-14.41V82.25c.56.1,1-.21,1.54-.25,3.37-.26,7,.05,10.33.25,4.58.27,9.21.51,13.67,1.44,7.31,1.53,14.94,5.23,19.8,11.14.97,1.18,1.58,2.27,2.19,3.56.21.45,1.05,1.69,1.13,1.99.11.38-.04.81.03,1.17.17.89.66,1.89.73,2.87.11,1.48-1.19,4.84-2.06,6.12-.37.55-1.43,1.95-1.84,2.36ZM323.59,183.97c-7.46.89-14.77,7.14-17.33,14.09-6.39,17.35,10.19,34.75,27.79,28.74,12.32-4.2,18.4-18.33,13.01-30.18-4.12-9.04-13.66-13.83-23.47-12.66ZM301.04,242.49c-10.14,1.06-15.73,12.79-10.45,21.38,5.79,9.4,19.78,9,24.62-.98.25-.51.83-1.42.98-1.9,1.34-4.33.67-8.53-1.77-12.31-2.85-4.4-8.16-6.74-13.38-6.2ZM263.61,271.74c-5.86,1.01-9.49,7.71-7,13.15,3.33,7.28,13.66,7.6,17.1.31.13-.27.44-.5.5-.7.08-.28-.02-.61.07-.89s.35-.53.41-.79c1.39-6.17-4.91-12.14-11.08-11.07Z"/>
      <path class="cls-1" d="M245.22,84.41c-.73-.08-1.4.29-2.09.43-3.59.73-7.18,1.52-10.7,2.49-1.06.29-2.89,1.13-3.88,1.16-.69.02-.13-.55-.6-.72,0,.04-.4.28-.25.71h-.95s0,.49,0,.49l1.33.23v26.4s-1.2.48-1.2.48h-49.19s-1.08-.49-1.08-.49c-.02.02-.27,0-.47.12-.25.15-.3.49-.72.36v-.47c-.42-.15-.46.22-.49.23.7,1.19-.16.97-.72,1.32-.81.5-2.29,1.75-3.11,2.41-3.81,3.05-7.09,6.52-10.68,9.71-.4.36-.78.04-.61.95h67.77c.07,0,.34.38.49.47l.11,82.14c-1.15,17.2-8.64,30.71-21.36,42.2-2.02,1.83-4.35,3.71-6.86,5.13-17.64,9.95-37.77,11.7-56.39,3.2-2.69-1.23-5.12-2.84-7.67-4.33-.44-.25-.69-.64-1.28-.52-.11.09.96,1.25,1.08,1.44,5.71,8.73,15.5,16.99,24.58,22.19.43.24.81.76,1.46.83,0,0-.01-.02-.02-.02,0,0,.01.02.02.02.07,0,.14.01.22.01v.32c.91,1.08,2.73.35,3.93.85,2.09,0,4.22.13,6.28.03,34.15-1.68,62.86-25.35,71.12-57.93.98-3.87,1.4-7.98,1.93-11.98V84.41Z"/>
      <path class="cls-1" d="M128.51,208.39h79.89s.43.39.49.47c.28.44-.11.8-.14,1.31-.08,1.48.14,3.1,0,4.57-.31,3.44-1.73,7.7-3.07,10.84-8.47,19.74-31.01,29.19-51.21,21.85-14.5-5.27-25.33-19.24-26.33-34.59-.06-.99-.12-2.93,0-3.85.04-.3.14-.41.37-.59Z"/>
      <path class="cls-1" d="M143.5,149.4c-.01-.07,0-.13,0-.19-.41.2-.81.42-1.2.65,0,.3-.11.55-.28.83-.61.99-1.6,2.05-2.24,3.04-2.97,4.56-5.5,9.34-7.85,14.22-.62,1.3-1.94,3.41-2.32,4.64-.18.58.16.82-.4.84-.28,1.55-.51,3.09-.84,4.64.07.06.11.12.13.12h80.01v-28.78h-65.01Z"/>
      <path class="cls-2" d="M44.35,93.33c2.16-.37,3.55.77,4.6,2.5l.04,198.53c-1.58,3.67-6.17,3.71-7.65-.04l.07-198.41c.52-1.19,1.61-2.35,2.93-2.58Z"/>
      <path class="cls-2" d="M59.1,94.53c.14-.14,1.28-.73,1.51-.77.45-.06,1.99-.08,2.37.03.33.1,1.75,1.32,1.95,1.65.18.29.34.95.37,1.31v196.66c-.03.39-.16.78-.3,1.14-.05.14-.49,1.05-.55,1.13-.23.33-1.46.92-1.92.96-2.55.23-3.97-.68-4.46-3.24V96.99c.04-.42.2-.93.36-1.31.07-.17.59-1.09.65-1.15Z"/>
      <path class="cls-2" d="M393.76,112.03c-.1.1-.09.39-.27.56-5,4.55-13.06,6.17-18.96,2.39-1.75-1.12-3.7-3.26-4.77-5.07-.56-.94-1.16-2.56-1.42-3.61-.18-.71-.55-2.66-.55-3.31,0-.32.19-1.53.26-1.92.66-3.84,3.33-7.49,6.95-9.12,2.66-1.2,7.12-2.1,8.6,1.25.84,1.91-.12,4.82-2.27,5.31-.73.17-1.73.13-2.49.38-3.47,1.15-3.76,4.73-2.02,7.56,1.95,3.16,7.09,3.4,10.04,1.41,8.34-5.63,2.7-18.55-6.43-19.4h-39.59c-1.07-.27-2.33-.89-2.97-1.82-1.3-1.92-.66-3.35.49-5.08l1.99-1h40.32c14.01,1.23,23.41,17.72,14.86,29.73-.62.87-1.16,1.15-1.75,1.73Z"/>
      <path class="cls-2" d="M24.2,80.62l40.49-.05c4.62,1.18,4.3,7.25-.48,7.91H24.62c-2.66.49-5.52,1.9-7.31,3.95-2.61,2.99-3.25,6.32-2.84,10.29.65,1.08.95,2.22,1.78,3.26,2.68,3.36,8.84,4.68,11.74.96.33-.42,1.19-1.85,1.29-2.31s.13-2.63,0-3.05c-.02-.08-.8-1.32-.92-1.47-.37-.46-1.35-1-1.91-1.2-1.68-.6-3.18-.01-4.44-1.79-1.05-1.48-1.1-2.9-.09-4.4s2.62-1.99,4.4-1.83c4.09.37,8.23,3.34,9.91,7.12,1.92,4.33.93,10.22-2.11,13.87-6.16,7.37-17.47,6.57-23.52-.48-9.86-11.48-.81-29.38,13.61-30.77Z"/>
      <path class="cls-2" d="M343.02,93.33c2.37-.31,4.24,1.61,4.4,3.9v56.61c-.19,1.78-.99,3.77-3,3.96-1.22.11-2.27.13-3.24-.62-.77-.59-1.61-1.91-1.7-2.86v-57.56c.6-1.71,1.62-3.17,3.53-3.43Z"/>
      <path class="cls-2" d="M359.1,256.87c2.47-.43,4.23.86,4.88,3.19v33.57c-.91,4.81-6.78,4.49-7.92,0v-33.09c.27-.6.28-1.49.6-2.04.35-.59,1.78-1.52,2.44-1.63Z"/>
      <path class="cls-2" d="M342.53,272.21c1.16-.25,2.49.12,3.44.81.29.21,1.09,1.18,1.17,1.47.07.24.25,1.15.27,1.41.55,5.6-.4,12.05,0,17.74-.47,3.17-3.85,4.55-6.47,2.63-.88-.64-1.02-1.69-1.45-2.63v-17.99c.46-1.05.58-2.04,1.59-2.72.23-.16,1.22-.67,1.44-.71Z"/>
      <path class="cls-2" d="M326.71,281.81c.94-.13,2.72.64,3.31,1.4.14.18.83,1.4.85,1.55l-.04,9.57c-.8,1.32-1.5,2.56-3.21,2.79-2.27.3-3.62-.73-4.44-2.75l.04-10.05c.87-1.44,1.78-2.26,3.49-2.51Z"/>
      <path class="cls-2" d="M260.81,81.77c.32.27.04.46-.36.48s-.81-.04-1.2,0c-3.39.37-7.15.92-10.56,1.44-2.17.33-4.28,1.59-3.24-1.92h15.35Z"/>
      <path class="cls-1" d="M203.72,99.04c-.22-.98.42-.7,1.03-1.01s3.58-2.07,4-1.63c.01.92.07,1.77-.24,2.64h-4.8Z"/>
      <path class="cls-2" d="M109.56,130.21c-.15,0-.77.76-.61,1.07.07,12.23.03,24.46,0,36.7s-.05,24.45.08,36.68c.06,5.55.01,10.9,1,16.39.47,2.64.95,5.29,1.89,7.8.28.74.59,1.47.91,2.19.52,1.2,1.05,2.41,1.61,3.59,4.18,8.82,10.38,16.3,18.05,22.3.44.35,1.65,1.2,1.41.03-1.92-3.18-3.92-6.51-5.46-9.89-1.57-3.46-3.08-7.92-3.91-11.67-.07-.3-.48-1.07-.68-1.35.02-.16,0-.32,0-.48.04-.67-.56-3.53-.75-4.4-1.64-7.28-1.99-15.25-1.4-22.82.54-6.89,1.72-13.34,3.55-19.95.73-2.62,1.44-4.8,2.4-7.43.13-.34-.07-.79.41-1.03.14-.04.26.04.34.11.34-1.55.57-3.09.84-4.64-.14,0-.32,0-.59-.03l-.21-23.18c-.11-.2.27-.56.33-.56h13.55c.01.08.01.15,0,.22.39-.23.79-.45,1.2-.65.02-.47.35-.87.6-1.24,1.06-1.58,3.48-3.84,3.95-5.52,1.03-.23,4.5-5.02,5.51-6.12,1.49-1.63,3.77-3.36,5.05-5.02.23-.3.5-.69.47-1.09h-49.54Z"/>
      <path class="cls-1" d="M209.47,95.44v.48s-.48,0-.48,0c-.02-.15.04-.35,0-.48.16,0,.32.01.48,0Z"/>
      <g>
        <path class="cls-2" d="M201.68,98.8h-23.03s-.36-.33-.36-.36v-16.31c-.4-.47-1.19-.43-1.79-.61h-16.81c-.23-.05-.83.53-.83.61v16.67h-30.47v-16.67c0-.08-.6-.66-.83-.61h-16.81c-.46.15-1.65.18-1.77.62l-.02,33.08.48.72,64.3-.13c.27.04.96.05,1.2,0,.03,0,.06-.38.47-.23v.47c.43.13.48-.21.74-.36.2-.12.46-.1.47-.12.02-.02-.05-.35.23-.6,1.48-1.32,4.28-3.12,6.01-4.31,1.27-.87,5.05-3.6,6.23-3.96.33-.1.58.25.48-.48.08-.01.17.02.24,0,.31-.09.63-.17.95-.25v-.47c.09-.01.17.01.25,0,.94-.13.61-.6.72-.72.04-.04.34.03.48,0,.73-.15,1.01-.53,1.66-.74l.02-.46c.16-.02.33.02.48,0,.66-.09.96-.68,1.67-.73v-.46c.09-.02.18.02.25,0,.66-.16,1.17-.46,1.76-.75l1.35-1.16c.15-.02.34.03.48,0,.31-.07,2.07-.64,2.16-.72.14-.13-.11-.96-.36-.96Z"/>
        <path class="cls-2" d="M227.23,81.77h-18.23s0,.48,0,.48c-.03.51.05,1.05,0,1.56-.35,3.18-.48,7.58-.25,10.8.03.41.17.55.25.83.16,0,.32.01.48,0,1.73-.14,5.13-2.05,6.95-2.76,2.73-1.07,5.82-2.37,8.55-3.2.43-.13,1.14-.07,1.63-.3l.14-.22v-.47s.95-.01.95-.01c-.15-.43.24-.67.25-.71.2-1.19-.13-2.82,0-4.08,0-.02.21-.03.25-.35.08-.63-.24-1.63-.97-1.57Z"/>
      </g>
      <path class="cls-2" d="M185.89,294.18c-6.97-2.43-13.25-5.38-19.77-8.78-.4-.21-1.3-.76-1.39-.78-.36-.08-.43.18-.36-.47.51-.02,1.02-.02,1.53-.02-1.2-.5-3.01.22-3.93-.85v.39c-.51-.04-1.07.06-1.57.01-16.65-1.6-32.67-9.39-44.62-20.62-3.33-3.13-6.23-6.51-8.88-10.08-6.06-8.17-10.83-17.77-13.03-27.5-.38-1.69-.57-3.31-.76-5-.1-.85-.63-1.99-.72-2.88-.2-1.98.12-4.05-.49-5.98l.02-129.51c.04-.2-.27-.59-.37-.59h-19.31l-.25,1.07c.18,44.35-.31,88.8.25,133.1.41,2.91.77,5.77,1.2,8.64.16,1.09.29,2.81.52,3.8.09.41.55.99.64,1.52.39,2.2.85,4.43,1.68,6.48.59,1.47.95,3.41,1.53,4.95.5,1.34,1.22,2.69,1.77,3.99,2.14,5.11,4.62,9.95,7.67,14.63.98,1.51,2.35,3.16,3.11,4.56.32.6,1.24,1.37,1.68,1.93,3.79,4.83,7.03,8.29,11.05,11.98,14.7,13.46,31.57,21.29,51.09,24.23,2.72.41,5.66.98,8.39,1.21,1.89.16,6.64.25,8.41,0,.42-.06.53-.43.95-.49,1.4-.2,3.47-.1,5.05-.23,5.48-.44,10.93-1.28,16.26-2.69,1.67-.44,3.32-1.01,4.98-1.5l.23-.84c-4.24-.97-8.44-2.22-12.55-3.65Z"/>
      <path class="cls-2" d="M363.62,94.95c-.84-.42-1.52-1.43-2.44-1.63-1.07-.23-2.98-.1-3.81.67-.27.25-.29.59-.39.69-.11.1-.44.07-.57.27-.18.26-.18,1.16-.59,1.57v68.12c.31.58,1.17,2.38,1.68,2.64.29.15.59.06.81.15.28.11.36.39.75.45.46.07,1.72.07,2.17,0,.2-.03,1.4-.67,1.56-.84l1.44-2.4v-68.36s-.6-1.32-.6-1.32Z"/>
      <path class="cls-2" d="M82.33,263.17c-.38-.88-.88-1.63-1.44-2.4-1.23-.53-2.01-1.04-3.44-.79-.31.06-1.74.71-1.98.9-.69.56-1.07,2-1.55,2.76v29.99c.49.78.78,2,1.45,2.63.11.1,1.5,1.02,1.59,1.05.36.1,1.95.1,2.37.04.07-.01,1.23-.55,1.31-.61.16-.11,1.03-.96,1.09-1.07.21-.41.19-1.08.6-1.56v-30.95Z"/>
    </g>
  </g>
</svg>